<?xml version="1.0" encoding="utf-8"?>
<!-- Generator: Adobe Illustrator 24.3.0, SVG Export Plug-In . SVG Version: 6.00 Build 0)  -->
<svg version="1.1" id="Layer_1" xmlns="http://www.w3.org/2000/svg" xmlns:xlink="http://www.w3.org/1999/xlink" x="0px" y="0px"
	 viewBox="0 0 250 250" style="enable-background:new 0 0 250 250;" xml:space="preserve">
<style type="text/css">
	.st0{fill:#7EBFCE;}
	.st1{fill:#CBF1F7;}
	.st2{fill:#B6E7F2;}
	.st3{fill:#2A445D;}
</style>
<g id="_x31_6">
	<g>
		<path class="st0" d="M114.3,91.5c2.5,0.7,6.1,1.5,10.4,1.5c4.1,0,7.6-0.8,10-1.5c0.2,2.3,0.5,4.5,0.7,6.8l-9.2,11.9l-11.3-9.3
			L114.3,91.5z"/>
		<path class="st1" d="M142.8,110.9c0,0.9-2.5,1.6-5.5,1.6c-3,0-5.5-0.7-5.5-1.6s2.5-1.6,5.5-1.6C140.3,109.3,142.8,110,142.8,110.9
			z"/>
		<path class="st2" d="M159.6,113.3l-5.7,6.6l-4.2,4.8l-1.5-1.3l-4.8-4v38.9h-37.7v-38.9l-4.8,4l-1.5,1.3l-4.2-4.8l-5.7-6.6l1.3-1.6
			l12-14.5c1-1.2,2.3-2.1,3.8-2.7c1.8-0.7,3.6-1.4,5.4-2.1c0.4-0.2,0.9-0.3,1.3-0.5c0.6,0.2,0.9,0.4,1.4,0.6c0.8,2,3.2,6.4,9.8,10.2
			c6.6-3.8,9-8.2,9.8-10.2c0.5-0.2,0.9-0.4,1.4-0.6c0.4,0.2,0.9,0.3,1.3,0.5c1.8,0.7,3.6,1.4,5.4,2.1c1.5,0.6,2.8,1.5,3.8,2.7
			l12,14.5L159.6,113.3z"/>
		<g>
			<path class="st3" d="M124.5,102.6v2.4c-6.3-1.9-11.1-9.8-12.6-12.6c0.4-0.1,0.8-0.3,1.1-0.4c0.4-0.2,0.8-0.3,1.2-0.5
				C114.6,91.9,116.1,97.8,124.5,102.6z"/>
			<path class="st0" d="M111.6,120.6v37.7h-5.9v-38.9l-0.1,0.1l-4.7,3.9l-1.5,1.3l-4.2-4.8l1.5-1.3l9.9-10.7
				C106.6,107.9,110.8,115.7,111.6,120.6z"/>
		</g>
		<g>
			<path class="st3" d="M124.5,102.6v2.4c6.3-1.8,11.1-9.8,12.6-12.6c-0.4-0.1-0.8-0.3-1.1-0.4c-0.4-0.2-0.8-0.3-1.2-0.5
				C134.5,91.9,133,97.8,124.5,102.6z"/>
			<path class="st0" d="M153.9,119.8l-4.2,4.8l-1.5-1.3l-4.7-3.9l-0.1-0.1v38.9h-5.9v-37.7c0.7-4.8,5-12.7,5-12.7l9.9,10.7
				L153.9,119.8z"/>
		</g>
		<rect x="105.7" y="156.3" class="st3" width="37.7" height="2"/>
		<polygon class="st3" points="100.9,123.4 99.4,124.7 95.2,119.8 89.5,113.3 90.8,111.7 96.7,118.5 		"/>
		<polygon class="st3" points="159.6,113.3 153.9,119.8 149.7,124.7 148.2,123.4 152.4,118.5 152.4,118.5 158.3,111.7 158.3,111.7 
					"/>
	</g>
	<g>
		<path class="st3" d="M124.5,141.9c-3.5,0-5.3-1.8-5.3-5.5v-3.3h3.8v2.9c0,1.2,0.2,2,0.7,2.3c0.2,0.1,0.5,0.2,0.9,0.2
			c0,0,0.1,0,0.1,0c0.9,0,1.3-0.9,1.3-2.6v-6.8c0-1-0.1-1.7-0.3-2.2c-0.2-0.5-0.6-0.7-1.2-0.7c-1,0-1.6,0.9-1.6,2.6l-3.6-0.2v-13.5
			h9.8v3.6h-6.1v5.4c0.2-0.4,0.5-0.7,1-0.9c0.5-0.2,1-0.3,1.6-0.3c1.5,0,2.6,0.7,3.2,2c0.6,1.4,0.9,3.5,0.9,6.5c0,3-0.1,5-0.3,6.2
			c-0.2,1.1-0.5,2-0.9,2.6C127.9,141.3,126.5,141.9,124.5,141.9z"/>
	</g>
</g>
</svg>
