<?xml version="1.0" encoding="utf-8"?>
<!-- Generator: Adobe Illustrator 24.3.0, SVG Export Plug-In . SVG Version: 6.00 Build 0)  -->
<svg version="1.1" id="Layer_1" xmlns="http://www.w3.org/2000/svg" xmlns:xlink="http://www.w3.org/1999/xlink" x="0px" y="0px"
	 viewBox="0 0 250 250" style="enable-background:new 0 0 250 250;" xml:space="preserve">
<style type="text/css">
	.st0{fill:#00204F;}
	.st1{fill:#DBA527;}
	.st2{fill:#FFFFFF;}
</style>
<g>
	<g>
		<path class="st0" d="M146.6,208.2c-6.6,2.8-13.9,4.3-21.6,4.3c-7.6,0-14.9-1.5-21.6-4.3c6.5,5.1,13.7,9.7,21.6,13.3
			C132.9,217.9,140.1,213.4,146.6,208.2z"/>
		<path class="st0" d="M66.2,97.9c15.7-15.7,36.6-24.4,58.8-24.4c22.2,0,43.1,8.6,58.8,24.4c6.8,6.8,12.2,14.5,16.2,22.9
			c1.3-4.5,2.4-8.7,3.3-12.3c-7.7-1.5-13.5-8.3-13.5-16.5c0-1.3,0.2-2.6,0.5-3.9l-13.8-3.3V69h0c-33.8-7.8-69-7.8-102.9,0h0v15.9
			l-13.8,3.3c0.3,1.2,0.5,2.5,0.5,3.9c0,8.1-5.8,14.9-13.5,16.5c0.9,3.7,2,7.8,3.3,12.3C54,112.4,59.4,104.7,66.2,97.9z"/>
		<path class="st0" d="M198.9,124.5C186.5,96,158.1,76.1,125,76.1S63.5,96,51.1,124.5c4.2,13.5,10.5,29.5,19.6,45.1
			c-1-4.1-1.5-8.4-1.5-12.8c0-30.8,25-55.8,55.8-55.8c30.8,0,55.8,25,55.8,55.8c0,4.4-0.5,8.7-1.5,12.8
			C188.5,154.1,194.7,138,198.9,124.5z"/>
	</g>
	<path class="st1" d="M125,60.6c17.5,0,35,2,52,5.9l2,0.5v2v13.9l11.9,2.8l2.5,0.6l-0.6,2.5c-0.3,1.1-0.4,2.2-0.4,3.3
		c0,6.8,4.8,12.7,11.5,14l2.6,0.5l-0.6,2.6c-3.6,15-10.5,37.5-22.9,59.4c-15,26.3-34.1,44.9-56.9,55.4l-1.1,0.5l-1.1-0.5
		c-22.8-10.5-41.9-29.1-56.9-55.4c-12.4-21.8-19.3-44.3-22.9-59.4l-0.6-2.6l2.6-0.5c6.6-1.3,11.5-7.2,11.5-14c0-1.1-0.1-2.2-0.4-3.3
		l-0.6-2.5l2.5-0.6L71,82.9V69v-2l2-0.5C90,62.6,107.5,60.6,125,60.6L125,60.6z M125,58.1c-17.7,0-35.4,2-52.6,6l-2,0.5l-2,0.5v2v2
		v11.8l-9.9,2.4l-2.5,0.6l-2.5,0.6l0.6,2.5l0.6,2.5c0.2,0.9,0.3,1.8,0.3,2.7c0,5.6-4,10.4-9.4,11.5l-2.6,0.5l-2.6,0.5l0.6,2.6
		l0.6,2.6c3.6,15.2,10.6,38,23.1,60c15.2,26.8,34.7,45.8,58,56.4l1.1,0.5l1.1,0.5l1.1-0.5l1.1-0.5c23.3-10.7,42.8-29.7,58-56.4
		c12.5-22.1,19.5-44.8,23.1-60l0.6-2.6l0.6-2.6l-2.6-0.5l-2.6-0.5c-5.5-1.1-9.4-5.9-9.4-11.5c0-0.9,0.1-1.8,0.3-2.7l0.6-2.5l0.6-2.5
		l-2.5-0.6l-2.5-0.6l-9.9-2.4V69v-2v-2l-2-0.5l-2-0.5C160.4,60.1,142.7,58.1,125,58.1L125,58.1z"/>
	<path class="st0" d="M125,103.5c-29.4,0-53.3,23.9-53.3,53.3c0,7.9,1.7,15.3,4.8,22c5.2,7.6,11.2,15,18,21.6
		c8.6,6,19.1,9.6,30.4,9.6c11.3,0,21.8-3.5,30.4-9.6c6.9-6.6,12.8-14,18-21.6c3.1-6.7,4.8-14.2,4.8-22
		C178.3,127.4,154.4,103.5,125,103.5z M125,204.8c-26.6,0-48.2-21.6-48.2-48.2c0-26.6,21.6-48.2,48.2-48.2
		c26.6,0,48.2,21.6,48.2,48.2C173.2,183.2,151.6,204.8,125,204.8z"/>
	<path class="st0" d="M125,202.2c25.2,0,45.6-20.5,45.6-45.6c0-25.2-20.5-45.6-45.6-45.6c-25.2,0-45.6,20.5-45.6,45.6
		C79.4,181.8,99.8,202.2,125,202.2z M167.7,156.6c0,9.2-2.9,17.8-7.9,24.7H149c-2.5,0-4.8-1.2-6.3-3.2l-4.2-5.7
		c-1.5-2-1.9-4.7-1.2-7.1l2.9-8.9c0.7-2.3,2.5-4.1,4.7-4.9l6.6-2.4c2.5-0.9,5.2-0.5,7.3,1L167.7,156.6
		C167.7,156.5,167.7,156.6,167.7,156.6z M126.5,128.7c0-2.5,1.2-4.9,3.2-6.4l8.6-6.3c8.5,2.8,15.8,8.2,21,15.2l-3.2,9.7
		c-0.7,2.3-2.5,4.1-4.7,4.9l-7,2.6c-2.5,0.9-5.2,0.5-7.3-1l-7.3-5.3c-2-1.5-3.2-3.8-3.2-6.4V128.7z M129.7,170.9
		c2.5,0,4.8,1.2,6.3,3.2l4.2,5.7c1.5,2,1.9,4.7,1.2,7.1l-3.4,10.4c-4.1,1.3-8.5,2-13,2c-4.5,0-8.8-0.7-12.9-2l-3.4-10.3
		c-0.8-2.4-0.4-5,1.1-7.1l4.2-5.7c1.5-2,3.8-3.2,6.4-3.2H129.7z M111.6,116l8.6,6.3c2,1.5,3.2,3.8,3.2,6.4v7.2
		c0,2.5-1.2,4.9-3.2,6.4l-7.5,5.4c-2.1,1.5-4.8,1.9-7.3,1l-6.7-2.4c-2.3-0.8-4-2.7-4.8-5l-3.3-10.2C96,124.1,103.2,118.8,111.6,116z
		 M82.3,156.8l9-6.5c2.1-1.5,4.8-1.9,7.3-1l6.5,2.4c2.3,0.8,4,2.7,4.8,5l2.9,8.8c0.8,2.4,0.4,5-1.1,7.1l-4,5.5
		c-1.5,2-3.8,3.2-6.4,3.2H90.2C85.3,174.3,82.4,165.9,82.3,156.8z"/>
	<polygon class="st0" points="125.1,22.9 128.9,30.5 137.2,31.7 131.2,37.6 132.6,46 125.1,42 117.6,46 119.1,37.6 113,31.7 
		121.4,30.5 	"/>
	<polygon class="st0" points="97.5,34.3 100.4,40.3 106.9,41.2 102.2,45.9 103.3,52.4 97.5,49.3 91.6,52.4 92.7,45.9 88,41.2 
		94.5,40.3 	"/>
	<polygon class="st0" points="152.5,34.3 149.6,40.3 143.1,41.2 147.8,45.9 146.7,52.4 152.5,49.3 158.4,52.4 157.3,45.9 162,41.2 
		155.5,40.3 	"/>
	<g>
		<path class="st2" d="M56.4,127.7l3.4-6.8l2.1,1l-2.1,4.2l2.5,1.3l2-4l2,1l-2,4l4.4,2.2l-1.3,2.5L56.4,127.7z"/>
		<path class="st2" d="M74.2,111c3.2,2.5,3.6,5.9,1.4,8.8c-2.2,2.9-5.7,2.9-8.5,0.7c-2.9-2.3-3.7-5.8-1.4-8.7
			C68,108.8,71.5,108.9,74.2,111z M68.9,118.2c1.9,1.5,4,1.6,5.1,0.1c1.2-1.5,0.4-3.4-1.5-4.9c-1.8-1.4-3.9-1.7-5.1-0.2
			C66.2,114.7,67,116.7,68.9,118.2z"/>
		<path class="st2" d="M85.8,100.9c2.6,3.1,2.3,6.6-0.5,8.9c-2.8,2.3-6.2,1.6-8.5-1.1c-2.4-2.9-2.3-6.5,0.5-8.8
			C80.2,97.4,83.6,98.3,85.8,100.9z M79,106.8c1.5,1.9,3.5,2.5,4.9,1.3c1.5-1.2,1.1-3.3-0.4-5.1c-1.4-1.7-3.4-2.5-4.9-1.3
			C77.2,102.8,77.5,104.9,79,106.8z"/>
		<path class="st2" d="M89.1,94.8l-2.9,1.6L85,94.3l8.3-4.5l1.1,2.1l-3,1.6l4.8,8.8l-2.5,1.3L89.1,94.8z"/>
		<path class="st2" d="M97.7,88.1c0.7-0.4,2-0.9,3.4-1.4c1.6-0.5,2.7-0.7,3.7-0.5c1,0.2,1.8,0.8,2.2,1.8c0.3,1,0,2.2-1.1,3.1l0,0
			c1.5-0.1,2.8,0.6,3.3,2.1c0.3,1.1,0.1,2.1-0.4,2.9c-0.6,1-1.9,1.8-4.3,2.6c-1.3,0.4-2.3,0.7-2.9,0.8L97.7,88.1z M101.8,91.8
			l0.9-0.3c1.4-0.5,2-1.3,1.7-2.1c-0.3-0.9-1.1-1.1-2.3-0.7c-0.6,0.2-0.9,0.3-1.1,0.4L101.8,91.8z M103.5,97c0.3-0.1,0.6-0.2,1-0.3
			c1.2-0.4,2.1-1.2,1.7-2.4c-0.4-1.2-1.6-1.3-2.9-0.9l-0.9,0.3L103.5,97z"/>
		<path class="st2" d="M115.4,92.8l-0.5,3.3l-2.9,0.3l2.3-12.7l3.6-0.4l5.2,11.8l-3,0.3l-1.3-3L115.4,92.8z M118.2,90.4l-1.1-2.5
			c-0.3-0.7-0.6-1.6-0.9-2.3l0,0c-0.1,0.7-0.2,1.7-0.3,2.4l-0.4,2.7L118.2,90.4z"/>
		<path class="st2" d="M126.6,82.9l2.8,0.2l-0.7,10l4.9,0.3l-0.2,2.3l-7.7-0.5L126.6,82.9z"/>
		<path class="st2" d="M138.9,84.2l2.7,0.6l-2.3,9.7l4.8,1.1l-0.5,2.3l-7.5-1.8L138.9,84.2z"/>
		<path class="st2" d="M156.7,92.5l-3-1.5l1.1-2.1l8.5,4.3l-1.1,2.1l-3-1.5l-4.6,8.9l-2.5-1.3L156.7,92.5z"/>
		<path class="st2" d="M168.7,105.9l-3.6-2.7l-1.8,2.3l4.1,3.1l-1.4,1.8l-6.3-4.7l7.4-9.9l6.1,4.6l-1.4,1.8l-3.9-2.9l-1.5,2.1
			l3.6,2.7L168.7,105.9z"/>
		<path class="st2" d="M172.3,112.2l-2.9,1.5l-1.9-2.1l11.7-5.5l2.5,2.7l-6.6,11.1l-2-2.2l1.7-2.8L172.3,112.2z M176,113.1l1.4-2.3
			c0.4-0.7,0.9-1.4,1.3-2.1l0,0c-0.7,0.4-1.5,0.9-2.1,1.2l-2.4,1.2L176,113.1z"/>
		<path class="st2" d="M185.8,128.7c1.3-0.8,2.8-1.7,4.4-2.6l0,0c-1.6,0.4-3.4,0.8-4.9,1.1l-4.9,1l-1.1-1.9l3.5-3.5
			c1.1-1.1,2.4-2.3,3.7-3.3l0,0c-1.5,0.7-3.2,1.6-4.6,2.3l-4.2,2.1l-1.3-2.3l11.2-5.3l1.8,3.3l-3,3.1c-1.1,1-2.2,2.1-3.4,3.1l0,0
			c1.4-0.4,3.1-0.8,4.5-1.1l4.2-0.8l1.8,3.2l-10.5,6.6l-1.3-2.4L185.8,128.7z"/>
	</g>
</g>
</svg>
