<?xml version="1.0" encoding="utf-8"?>
<!-- Generator: Adobe Illustrator 24.3.0, SVG Export Plug-In . SVG Version: 6.00 Build 0)  -->
<svg version="1.1" id="Layer_1" xmlns="http://www.w3.org/2000/svg" xmlns:xlink="http://www.w3.org/1999/xlink" x="0px" y="0px"
	 viewBox="0 0 250 250" style="enable-background:new 0 0 250 250;" xml:space="preserve">
<style type="text/css">
	.st0{fill:#DBA527;}
	.st1{fill:#00204F;}
	.st2{fill:#00204F;stroke:#00204F;}
	.st3{font-family:'Calibri';}
	.st4{font-size:32.2146px;}
	.st5{fill:none;}
	.st6{fill:#FFFFFF;stroke:#FFFFFF;stroke-miterlimit:10;}
	.st7{font-size:15px;}
</style>
<g>
	<g>
		<path class="st0" d="M116.1,176.4v33.2c3,1.9,6,3.6,9.1,5.2c3.1-1.6,6.1-3.3,9.1-5.2v-33.2c-3.1-0.1-6.1-0.2-9.2-0.2
			C122,176.2,119,176.2,116.1,176.4z"/>
		<path class="st0" d="M97.9,195v-17.1c-4.4,0.6-8.8,1.3-13,2.2C89,185.6,93.4,190.5,97.9,195z"/>
		<path class="st0" d="M165.3,180.2c-4.2-0.9-8.5-1.6-13-2.2v17C156.9,190.5,161.2,185.6,165.3,180.2z"/>
	</g>
	<path class="st1" d="M125.1,93.5c19.7,0,35.7-16,35.7-35.7c0-19.7-16-35.7-35.7-35.7c-19.7,0-35.7,16-35.7,35.7
		C89.4,77.5,105.4,93.5,125.1,93.5z M158.5,57.8c0,7.2-2.3,13.9-6.2,19.4h-8.4c-1.9,0-3.8-0.9-4.9-2.5l-3.3-4.5
		c-1.2-1.6-1.5-3.7-0.9-5.6l2.3-6.9c0.6-1.8,1.9-3.2,3.7-3.9l5.2-1.9c1.9-0.7,4.1-0.4,5.8,0.8L158.5,57.8
		C158.5,57.8,158.5,57.8,158.5,57.8z M126.3,36c0-2,0.9-3.8,2.5-5l6.8-4.9c6.6,2.2,12.4,6.4,16.4,11.9l-2.5,7.6
		c-0.6,1.8-1.9,3.2-3.7,3.9l-5.5,2c-1.9,0.7-4.1,0.4-5.8-0.8l-5.7-4.2c-1.6-1.2-2.5-3-2.5-5V36z M128.8,69c1.9,0,3.8,0.9,4.9,2.5
		l3.3,4.4c1.2,1.6,1.5,3.7,0.9,5.6l-2.6,8.1c-3.2,1-6.6,1.6-10.2,1.6c-3.5,0-6.9-0.5-10.1-1.6l-2.6-8.1c-0.6-1.9-0.3-3.9,0.9-5.5
		l3.3-4.5c1.2-1.6,3-2.5,5-2.5H128.8z M114.7,26.1l6.8,4.9c1.6,1.2,2.5,3,2.5,5v5.6c0,2-0.9,3.8-2.5,5l-5.8,4.2
		c-1.7,1.2-3.8,1.5-5.7,0.8l-5.2-1.9c-1.8-0.6-3.2-2.1-3.8-3.9l-2.6-8C102.4,32.4,108.1,28.2,114.7,26.1z M91.7,58l7-5.1
		c1.7-1.2,3.8-1.5,5.7-0.8l5.1,1.8c1.8,0.6,3.2,2.1,3.8,3.9l2.2,6.9c0.6,1.9,0.3,3.9-0.9,5.5l-3.2,4.3c-1.2,1.6-3,2.5-5,2.5h-8.7
		C94,71.7,91.8,65.1,91.7,58z"/>
	<g>
		<path class="st1" d="M194.3,148.6c-2.7,6-5.7,12.1-9.2,18.2c-15.7,27.5-35.7,47-59.5,58l-0.6,0.3l-0.6-0.3
			c-23.8-10.9-43.8-30.4-59.5-58c-3.4-6.1-6.5-12.2-9.2-18.2h-2.9c2.8,6.4,6.1,13,9.7,19.5c15.9,28,36.3,47.9,60.6,59l1.7,0.8
			l1.7-0.8c24.3-11.2,44.7-31,60.6-59c3.7-6.5,6.9-13,9.7-19.5H194.3z"/>
		<path class="st1" d="M163.5,58c5.5,0.9,10.9,1.9,16.3,3.2l1,0.2v16.8l14.9,3.5l-0.3,1.3c-0.3,1.3-0.4,2.5-0.4,3.8
			c0,7.8,5.6,14.6,13.2,16.1l1.4,0.3l-0.3,1.3c-0.6,2.4-1.2,5.1-2,7.8h2.7c0.7-2.6,1.3-5,1.8-7.2l1-4l-4.1-0.8
			c-6.4-1.3-11.1-6.9-11.1-13.5c0-1.1,0.1-2.1,0.4-3.2l0.9-3.9L183.4,76V59.3l-3.1-0.7c-5.6-1.3-11.3-2.4-17-3.3
			c0.1,0.8,0.1,1.7,0.1,2.5C163.5,57.9,163.5,57.9,163.5,58z"/>
		<path class="st1" d="M40.3,112.3h2.7c-0.8-2.8-1.4-5.4-2-7.8l-0.3-1.3l1.4-0.3c7.7-1.5,13.2-8.3,13.2-16.1c0-1.3-0.2-2.5-0.4-3.8
			l-0.3-1.3l14.9-3.5V61.4l1-0.2c5.4-1.2,10.8-2.3,16.3-3.2c0-0.1,0-0.1,0-0.2c0-0.9,0-1.7,0.1-2.5c-5.7,0.9-11.4,2-17,3.3l-3.1,0.7
			V76l-15.4,3.7l0.9,3.9c0.2,1,0.4,2.1,0.4,3.2c0,6.6-4.7,12.2-11.1,13.5l-4.1,0.8l1,4C39,107.3,39.7,109.7,40.3,112.3z"/>
	</g>
	<path class="st1" d="M57.4,148.6c12.8,28.5,33.8,59.3,67.7,74.9c33.9-15.6,54.9-46.4,67.7-74.9H57.4z M125.1,217.7
		c-17.1-8.3-32.1-21.5-44.7-39.2c13.3-3.1,28.5-4.9,44.6-4.9c16.2,0,31.4,1.8,44.8,5C157.1,196.2,142.2,209.4,125.1,217.7z"/>
	<path class="st1" d="M193.6,86.8c0-1.4,0.2-2.8,0.5-4.1l-14.6-3.5V62.4l0,0c-5.3-1.2-10.7-2.3-16-3.1
		c-0.8,20.5-17.7,36.9-38.3,36.9c-20.7,0-37.5-16.4-38.3-36.9c-5.4,0.9-10.7,1.9-16,3.1h0v16.8l-14.6,3.5c0.3,1.3,0.5,2.7,0.5,4.1
		c0,8.6-6.1,15.8-14.3,17.4c0.6,2.5,1.3,5.2,2.1,8.2h161.3c0.8-2.9,1.5-5.6,2.1-8.2C199.7,102.5,193.6,95.4,193.6,86.8z
		 M203.2,109.1H46.9l-0.5-1.9h157.4L203.2,109.1z"/>
</g>
<text transform="matrix(1.5232 0 0 1 23.5894 138.5801)" class="st2 st3 st4">Blagojević</text>
<rect x="53.1" y="148.6" class="st5" width="144.1" height="24.9"/>
<text transform="matrix(1 0 0 1 74.8394 166.1723)" class="st6 st3 st7">ŠKOLA FUDBALA</text>
</svg>
